<svg width="21" height="21" fill="none" xmlns="http://www.w3.org/2000/svg"><g clip-path="url(#clip0_8_3163)" fill="#887569"><path d="M20.914 8.927a.437.437 0 00-.351-.177H.438a.437.437 0 00-.42.563l2.251 7.503a2.175 2.175 0 002.096 1.559h12.27c.974 0 1.817-.627 2.096-1.558l2.25-7.504a.436.436 0 00-.067-.386zm-3.02 7.638c-.17.559-.674.935-1.259.935H4.365c-.585 0-1.09-.376-1.257-.935l-2.082-6.94h18.949l-2.082 6.94z"/><path d="M9.405 2.683a.438.438 0 00-.598.163l-3.5 6.125a.438.438 0 00.761.434l3.5-6.125a.438.438 0 00-.163-.597zm6.288 6.287l-3.5-6.124a.439.439 0 00-.761.434l3.5 6.125a.438.438 0 00.761-.434z"/></g><defs><clipPath id="clip0_8_3163"><path fill="#fff" d="M0 0h21v21H0z"/></clipPath></defs></svg>