<svg width="32" height="32" fill="none" xmlns="http://www.w3.org/2000/svg"><g clip-path="url(#clip0)" fill="#887569"><path d="M31.869 13.603a.666.666 0 00-.535-.27H.667a.665.665 0 00-.639.857l3.43 11.434A3.314 3.314 0 006.65 28h18.7a3.312 3.312 0 003.192-2.375l3.43-11.433a.664.664 0 00-.103-.59zM27.266 25.24a1.991 1.991 0 01-1.917 1.426H6.65a1.99 1.99 0 01-1.916-1.426L1.563 14.667h28.875L27.266 25.24z"/><path d="M14.331 4.088a.667.667 0 00-.91.248L8.087 13.67a.668.668 0 001.16.662l5.334-9.334a.668.668 0 00-.25-.909zm9.582 9.582L18.58 4.335a.669.669 0 00-1.16.661l5.333 9.334a.668.668 0 001.16-.662z"/></g><defs><clipPath id="clip0"><path fill="#fff" d="M0 0h32v32H0z"/></clipPath></defs></svg>