<svg width="11" height="19" fill="none" xmlns="http://www.w3.org/2000/svg"><path d="M6.783 18.963h-3.05a.924.924 0 01-.923-.922v-6.863H1.032a.924.924 0 01-.924-.921V7.316c0-.508.415-.922.924-.922H2.81V4.922c0-1.46.46-2.703 1.329-3.593C5.012.435 6.232-.037 7.667-.037l2.325.004c.508 0 .921.414.921.921v2.73a.923.923 0 01-.923.922l-1.565.001c-.477 0-.599.095-.625.125-.043.048-.094.186-.094.565v1.163h2.167a.925.925 0 01.932.922l-.001 2.94a.923.923 0 01-.924.922H7.706v6.863a.924.924 0 01-.923.922zm-2.856-1.114H6.59v-7.17c0-.339.277-.615.617-.615h2.48l.002-2.556H7.206a.617.617 0 01-.616-.615V5.23c0-.435.044-.93.373-1.302.398-.45 1.025-.502 1.462-.502h1.372V1.08l-2.131-.003c-2.306 0-3.74 1.473-3.74 3.845v1.97c0 .34-.276.616-.616.616H1.224v2.556H3.31c.34 0 .617.276.617.616v7.169zM9.99 1.081z" fill="#7D6C65"/></svg>