<svg width="28" height="26" fill="none" xmlns="http://www.w3.org/2000/svg"><path d="M7.94 2.238c2.335-.012 4.555.94 6.06 2.6 1.495-1.67 3.722-2.626 6.06-2.6 4.386 0 7.94 3.3 7.94 7.372 0 6.977-13.114 13.79-13.646 14.053a.679.679 0 01-.708 0C13.114 23.399 0 16.686 0 9.61c0-4.072 3.555-7.372 7.94-7.372zM14 22.346c2.056-1.119 12.582-7.075 12.582-12.736 0-3.345-2.92-6.056-6.521-6.056-2.206-.027-4.27 1.006-5.459 2.732a.782.782 0 01-1.039.153.718.718 0 01-.165-.153C11.426 3.486 7.385 2.7 4.37 4.53 2.525 5.651 1.414 7.562 1.418 9.61c0 5.726 10.526 11.65 12.582 12.736z" fill="#675B56"/></svg>