<svg width="19" height="19" fill="none" xmlns="http://www.w3.org/2000/svg"><path d="M13.857 0H5.143A5.149 5.149 0 000 5.143v8.714A5.149 5.149 0 005.143 19h8.714A5.149 5.149 0 0019 13.857V5.143A5.149 5.149 0 0013.857 0zm4.03 13.857a4.034 4.034 0 01-4.03 4.03H5.143a4.034 4.034 0 01-4.03-4.03V5.143a4.034 4.034 0 014.03-4.03h8.714a4.034 4.034 0 014.03 4.03v8.714z" fill="#7D6C65"/><path d="M9.5 4.305A5.201 5.201 0 004.305 9.5 5.201 5.201 0 009.5 14.695 5.201 5.201 0 0014.695 9.5 5.201 5.201 0 009.5 4.305zm0 9.276A4.086 4.086 0 015.419 9.5a4.086 4.086 0 014.08-4.081 4.086 4.086 0 014.082 4.08A4.086 4.086 0 019.5 13.581zM14.82 2.46c-.847 0-1.536.688-1.536 1.535 0 .846.689 1.535 1.535 1.535.847 0 1.536-.689 1.536-1.535 0-.847-.69-1.535-1.536-1.535zm0 1.956a.422.422 0 110-.844.422.422 0 010 .844z" fill="#7D6C65"/></svg>