<svg width="16" height="16" fill="none" xmlns="http://www.w3.org/2000/svg"><path d="M7.989 0a5.87 5.87 0 00-5.864 5.864c0 1.485.936 3.584 2.782 6.238a41.853 41.853 0 002.732 3.503l.35.395.35-.395a41.91 41.91 0 002.732-3.503c1.846-2.654 2.782-4.753 2.782-6.238A5.87 5.87 0 007.989 0zm2.32 11.56a42.495 42.495 0 01-2.32 3.017 42.46 42.46 0 01-2.314-3.01C3.965 9.11 3.06 7.137 3.06 5.864A4.934 4.934 0 017.99.935a4.934 4.934 0 014.928 4.929c0 1.271-.902 3.24-2.609 5.696z" fill="#7D6C65"/><path d="M7.988 2.167a3.465 3.465 0 00-3.46 3.461 3.465 3.465 0 003.46 3.461 3.465 3.465 0 003.461-3.461 3.465 3.465 0 00-3.46-3.46zm0 5.987a2.528 2.528 0 01-2.525-2.526 2.528 2.528 0 012.525-2.525 2.528 2.528 0 012.526 2.525 2.528 2.528 0 01-2.526 2.526z" fill="#7D6C65"/></svg>