<svg width="25" height="14" fill="none" xmlns="http://www.w3.org/2000/svg"><g clip-path="url(#clip0_926:2)"><path d="M6.793.085L2.418 4.46a.292.292 0 10.413.413L6.708.996v12.712a.292.292 0 10.583 0V.996l3.877 3.877a.291.291 0 10.413-.413L7.206.085a.292.292 0 00-.413 0z" fill="#525252"/></g><g clip-path="url(#clip1_926:2)"><path d="M18.206 13.915l4.375-4.375a.291.291 0 10-.412-.413l-3.877 3.877V.292a.292.292 0 10-.583 0v12.712l-3.877-3.877a.292.292 0 10-.413.413l4.375 4.375a.292.292 0 00.412 0z" fill="#525252"/></g><defs><clipPath id="clip0_926:2"><path fill="#fff" transform="rotate(-90 7 7)" d="M0 0h14v14H0z"/></clipPath><clipPath id="clip1_926:2"><path fill="#fff" transform="rotate(90 12.5 12.5)" d="M0 0h14v14H0z"/></clipPath></defs></svg>