<svg width="17" height="17" fill="none" xmlns="http://www.w3.org/2000/svg"><g clip-path="url(#clip0_169_470)"><path d="M16.857 16.133l-4.131-4.131a7.22 7.22 0 001.779-4.753c0-4-3.253-7.249-7.249-7.249C3.257 0 .008 3.253.008 7.249c0 3.995 3.253 7.248 7.248 7.248a7.22 7.22 0 004.754-1.779l4.13 4.131c.099.098.23.151.359.151a.51.51 0 00.358-.867zM1.022 7.249a6.238 6.238 0 016.23-6.231 6.238 6.238 0 016.231 6.23c0 3.434-2.793 6.235-6.23 6.235-3.434 0-6.231-2.797-6.231-6.234z" fill="#887569"/></g><defs><clipPath id="clip0_169_470"><path fill="#fff" d="M0 0h17v17H0z"/></clipPath></defs></svg>