<svg width="18" height="18" fill="none" xmlns="http://www.w3.org/2000/svg"><g clip-path="url(#clip0_63_1962)"><path d="M17.848 17.082l-4.374-4.374a7.644 7.644 0 001.884-5.033C15.358 3.44 11.913 0 7.683 0 3.448 0 .008 3.444.008 7.675c0 4.23 3.444 7.675 7.675 7.675 1.923 0 3.684-.71 5.033-1.884l4.374 4.374a.526.526 0 00.758 0 .54.54 0 000-.758zM1.081 7.675A6.605 6.605 0 017.68 1.078a6.605 6.605 0 016.597 6.597c0 3.636-2.957 6.601-6.597 6.601-3.636 0-6.598-2.961-6.598-6.601z" fill="#887569"/></g><defs><clipPath id="clip0_63_1962"><path fill="#fff" d="M0 0h18v18H0z"/></clipPath></defs></svg>